<svg width="532" height="47" viewBox="0 0 532 47" fill="none" xmlns="http://www.w3.org/2000/svg">
<path d="M0.840915 16.0236C0.634374 15.6937 0.442587 15.2437 0.265552 14.6738C0.0885173 14.1039 0 13.5039 0 12.874C0 11.7042 0.250799 10.8643 0.752398 10.3543C1.2835 9.84439 1.96213 9.58943 2.7883 9.58943H22.0851C22.2916 9.91938 22.4834 10.3693 22.6604 10.9393C22.8375 11.5092 22.926 12.1091 22.926 12.739C22.926 13.9089 22.6604 14.7488 22.1293 15.2587C21.6277 15.7687 20.9639 16.0236 20.1377 16.0236H15.225V36.811C14.9004 36.901 14.3841 36.991 13.6759 37.081C12.9973 37.171 12.3187 37.216 11.64 37.216C10.9614 37.216 10.3565 37.156 9.82543 37.036C9.32383 36.946 8.89599 36.766 8.54193 36.4961C8.18786 36.2261 7.9223 35.8511 7.74527 35.3712C7.56823 34.8913 7.47972 34.2613 7.47972 33.4814V16.0236H0.840915Z" fill="#3077C6"/>
<path d="M31.8497 36.946C31.5546 37.036 31.0825 37.126 30.4334 37.216C29.8138 37.306 29.1646 37.351 28.486 37.351C27.8369 37.351 27.2468 37.306 26.7156 37.216C26.214 37.126 25.7862 36.946 25.4321 36.676C25.0781 36.4061 24.7978 36.0461 24.5912 35.5962C24.4142 35.1162 24.3257 34.5013 24.3257 33.7514V20.2531C24.3257 19.5632 24.4437 18.9783 24.6797 18.4983C24.9453 17.9884 25.3141 17.5384 25.7862 17.1485C26.2583 16.7585 26.8337 16.4136 27.5123 16.1136C28.2204 15.7837 28.9728 15.4987 29.7695 15.2587C30.5662 15.0187 31.3923 14.8388 32.248 14.7188C33.1037 14.5688 33.9593 14.4938 34.815 14.4938C36.2313 14.4938 37.3525 14.7788 38.1786 15.3487C39.0048 15.8886 39.4179 16.7885 39.4179 18.0484C39.4179 18.4683 39.3589 18.8883 39.2409 19.3082C39.1228 19.6982 38.9753 20.0581 38.7983 20.3881C38.1786 20.3881 37.5443 20.4181 36.8951 20.4781C36.246 20.5381 35.6116 20.628 34.992 20.748C34.3724 20.868 33.7823 21.003 33.2217 21.153C32.6906 21.273 32.2332 21.4229 31.8497 21.6029V36.946Z" fill="#3077C6"/>
<path d="M42.3448 9.04949C42.3448 7.90964 42.7137 6.94976 43.4513 6.16985C44.2185 5.38995 45.2216 5 46.4609 5C47.7001 5 48.6886 5.38995 49.4262 6.16985C50.1934 6.94976 50.577 7.90964 50.577 9.04949C50.577 10.1894 50.1934 11.1492 49.4262 11.9291C48.6886 12.709 47.7001 13.099 46.4609 13.099C45.2216 13.099 44.2185 12.709 43.4513 11.9291C42.7137 11.1492 42.3448 10.1894 42.3448 9.04949ZM50.2229 36.946C49.8983 37.006 49.4115 37.081 48.7623 37.171C48.1427 37.291 47.5083 37.351 46.8592 37.351C46.2101 37.351 45.62 37.306 45.0889 37.216C44.5873 37.126 44.1594 36.946 43.8054 36.676C43.4513 36.4061 43.171 36.0461 42.9645 35.5962C42.7874 35.1162 42.6989 34.5013 42.6989 33.7514V15.4387C43.0235 15.3787 43.4956 15.3037 44.1152 15.2137C44.7643 15.0937 45.4134 15.0337 46.0626 15.0337C46.7117 15.0337 47.2871 15.0787 47.7887 15.1687C48.3198 15.2587 48.7623 15.4387 49.1164 15.7087C49.4705 15.9786 49.736 16.3536 49.9131 16.8335C50.1196 17.2835 50.2229 17.8834 50.2229 18.6333V36.946Z" fill="#3077C6"/>
<path d="M64.8825 14.4488C66.6529 14.4488 68.2905 14.6888 69.7952 15.1687C71.3296 15.6187 72.6426 16.3236 73.7343 17.2835C74.826 18.2433 75.6816 19.4582 76.3013 20.928C76.9209 22.3678 77.2307 24.0926 77.2307 26.1024C77.2307 28.0221 76.9652 29.7019 76.4341 31.1417C75.9029 32.5816 75.1505 33.7964 74.1769 34.7863C73.2032 35.7462 72.0229 36.4661 70.6362 36.946C69.2789 37.4259 67.7594 37.6659 66.0775 37.6659C64.8088 37.6659 63.6285 37.4709 62.5368 37.081V44.5501C62.2418 44.64 61.7697 44.73 61.1205 44.82C60.4714 44.94 59.8075 45 59.1289 45C58.4798 45 57.8897 44.955 57.3586 44.865C56.857 44.775 56.4291 44.5951 56.0751 44.3251C55.721 44.0551 55.4554 43.6802 55.2784 43.2002C55.1014 42.7503 55.0128 42.1504 55.0128 41.4004V19.8031C55.0128 18.9933 55.1751 18.3333 55.4997 17.8234C55.8538 17.3135 56.3259 16.8485 56.916 16.4286C57.8307 15.8286 58.9666 15.3487 60.3239 14.9888C61.6812 14.6288 63.2007 14.4488 64.8825 14.4488ZM64.9711 31.6367C68.0102 31.6367 69.5297 29.7919 69.5297 26.1024C69.5297 24.1826 69.1461 22.7578 68.379 21.8279C67.6413 20.898 66.5644 20.4331 65.1481 20.4331C64.5875 20.4331 64.0859 20.5081 63.6433 20.658C63.2007 20.778 62.8171 20.928 62.4926 21.108V31.0067C62.8466 31.1867 63.2302 31.3367 63.6433 31.4567C64.0564 31.5767 64.499 31.6367 64.9711 31.6367Z" fill="#3077C6"/>
<path d="M105.466 36.811C105.141 36.901 104.625 36.991 103.917 37.081C103.238 37.171 102.56 37.216 101.881 37.216C101.202 37.216 100.598 37.156 100.066 37.036C99.5649 36.946 99.137 36.766 98.783 36.4961C98.4289 36.2261 98.1633 35.8511 97.9863 35.3712C97.8093 34.8913 97.7207 34.2613 97.7207 33.4814V26.4623H89.2231V36.811C88.8985 36.901 88.3822 36.991 87.674 37.081C86.9954 37.171 86.3168 37.216 85.6381 37.216C84.9595 37.216 84.3546 37.156 83.8235 37.036C83.3219 36.946 82.8941 36.766 82.54 36.4961C82.1859 36.2261 81.9204 35.8511 81.7434 35.3712C81.5663 34.8913 81.4778 34.2613 81.4778 33.4814V9.72441C81.8024 9.66442 82.3187 9.58943 83.0269 9.49944C83.735 9.37945 84.4136 9.31946 85.0628 9.31946C85.7414 9.31946 86.3315 9.37945 86.8331 9.49944C87.3642 9.58943 87.8068 9.7694 88.1609 10.0394C88.5149 10.3093 88.7805 10.6843 88.9575 11.1642C89.1346 11.6442 89.2231 12.2741 89.2231 13.054V20.2531H97.7207V9.72441C98.0453 9.66442 98.5617 9.58943 99.2698 9.49944C99.9779 9.37945 100.657 9.31946 101.306 9.31946C101.984 9.31946 102.574 9.37945 103.076 9.49944C103.607 9.58943 104.05 9.7694 104.404 10.0394C104.758 10.3093 105.023 10.6843 105.2 11.1642C105.377 11.6442 105.466 12.2741 105.466 13.054V36.811Z" fill="#3077C6"/>
<path d="M132.901 26.0574C132.901 27.9171 132.621 29.5819 132.06 31.0517C131.499 32.4916 130.703 33.7064 129.67 34.6963C128.667 35.6862 127.457 36.4361 126.041 36.946C124.624 37.4559 123.046 37.7109 121.305 37.7109C119.564 37.7109 117.986 37.4409 116.569 36.901C115.153 36.3611 113.929 35.5962 112.896 34.6063C111.893 33.5864 111.111 32.3566 110.55 30.9168C109.99 29.4769 109.709 27.8571 109.709 26.0574C109.709 24.2876 109.99 22.6828 110.55 21.243C111.111 19.8031 111.893 18.5883 112.896 17.5984C113.929 16.5786 115.153 15.7987 116.569 15.2587C117.986 14.7188 119.564 14.4488 121.305 14.4488C123.046 14.4488 124.624 14.7338 126.041 15.3037C127.457 15.8436 128.667 16.6235 129.67 17.6434C130.703 18.6333 131.499 19.8481 132.06 21.288C132.621 22.7278 132.901 24.3176 132.901 26.0574ZM117.41 26.0574C117.41 27.8871 117.75 29.297 118.428 30.2868C119.136 31.2467 120.11 31.7267 121.349 31.7267C122.589 31.7267 123.533 31.2317 124.182 30.2418C124.861 29.252 125.2 27.8571 125.2 26.0574C125.2 24.2576 124.861 22.8778 124.182 21.9179C123.503 20.928 122.544 20.4331 121.305 20.4331C120.066 20.4331 119.107 20.928 118.428 21.9179C117.75 22.8778 117.41 24.2576 117.41 26.0574Z" fill="#3077C6"/>
<path d="M136.572 15.4387C136.867 15.3487 137.324 15.2587 137.944 15.1687C138.593 15.0787 139.257 15.0337 139.935 15.0337C140.584 15.0337 141.16 15.0787 141.661 15.1687C142.192 15.2587 142.635 15.4387 142.989 15.7087C143.343 15.9786 143.609 16.3536 143.786 16.8335C143.992 17.2835 144.096 17.8834 144.096 18.6333V28.3071C144.096 29.5369 144.391 30.4218 144.981 30.9618C145.571 31.4717 146.426 31.7267 147.548 31.7267C148.226 31.7267 148.772 31.6667 149.185 31.5467C149.628 31.4267 149.967 31.3067 150.203 31.1867V15.4387C150.498 15.3487 150.956 15.2587 151.575 15.1687C152.224 15.0787 152.888 15.0337 153.567 15.0337C154.216 15.0337 154.791 15.0787 155.293 15.1687C155.824 15.2587 156.267 15.4387 156.621 15.7087C156.975 15.9786 157.24 16.3536 157.417 16.8335C157.624 17.2835 157.727 17.8834 157.727 18.6333V32.3116C157.727 33.8114 157.108 34.9363 155.868 35.6862C154.836 36.3461 153.596 36.841 152.151 37.171C150.734 37.5309 149.185 37.7109 147.503 37.7109C145.91 37.7109 144.435 37.5309 143.078 37.171C141.75 36.811 140.599 36.2561 139.625 35.5062C138.652 34.7563 137.899 33.7964 137.368 32.6265C136.837 31.4267 136.572 29.9869 136.572 28.3071V15.4387Z" fill="#3077C6"/>
<path d="M180.478 30.4668C180.478 32.7465 179.637 34.5313 177.955 35.8211C176.273 37.111 173.794 37.7559 170.519 37.7559C169.28 37.7559 168.129 37.6659 167.067 37.4859C166.005 37.306 165.09 37.036 164.323 36.676C163.586 36.2861 162.995 35.8061 162.553 35.2362C162.14 34.6663 161.933 33.9914 161.933 33.2115C161.933 32.4916 162.081 31.8916 162.376 31.4117C162.671 30.9018 163.025 30.4818 163.438 30.1519C164.294 30.6318 165.267 31.0667 166.359 31.4567C167.48 31.8166 168.764 31.9966 170.21 31.9966C171.124 31.9966 171.818 31.8616 172.29 31.5917C172.791 31.3217 173.042 30.9618 173.042 30.5118C173.042 30.0919 172.865 29.7619 172.511 29.5219C172.157 29.282 171.567 29.087 170.741 28.937L169.413 28.667C166.846 28.1571 164.928 27.3622 163.659 26.2823C162.42 25.1725 161.8 23.5977 161.8 21.5579C161.8 20.4481 162.036 19.4432 162.509 18.5433C162.981 17.6434 163.645 16.8935 164.5 16.2936C165.356 15.6937 166.374 15.2287 167.554 14.8988C168.764 14.5688 170.092 14.4038 171.537 14.4038C172.629 14.4038 173.647 14.4938 174.591 14.6738C175.565 14.8238 176.406 15.0637 177.114 15.3937C177.822 15.7237 178.383 16.1586 178.796 16.6985C179.209 17.2085 179.415 17.8234 179.415 18.5433C179.415 19.2332 179.283 19.8331 179.017 20.3431C178.781 20.823 178.471 21.228 178.088 21.5579C177.852 21.4079 177.497 21.258 177.025 21.108C176.553 20.928 176.037 20.778 175.476 20.658C174.916 20.5081 174.34 20.3881 173.75 20.2981C173.19 20.2081 172.673 20.1631 172.201 20.1631C171.227 20.1631 170.475 20.2831 169.944 20.5231C169.413 20.733 169.147 21.078 169.147 21.5579C169.147 21.8879 169.295 22.1579 169.59 22.3678C169.885 22.5778 170.446 22.7728 171.272 22.9528L172.644 23.2677C175.476 23.9276 177.483 24.8425 178.663 26.0124C179.873 27.1522 180.478 28.637 180.478 30.4668Z" fill="#3077C6"/>
<path d="M195.706 37.7109C193.965 37.7109 192.342 37.4709 190.837 36.991C189.362 36.4811 188.064 35.7312 186.942 34.7413C185.851 33.7514 184.98 32.5066 184.331 31.0067C183.712 29.5069 183.402 27.7522 183.402 25.7424C183.402 23.7627 183.712 22.0679 184.331 20.658C184.98 19.2182 185.821 18.0484 186.854 17.1485C187.887 16.2186 189.067 15.5437 190.395 15.1237C191.722 14.6738 193.08 14.4488 194.466 14.4488C196.03 14.4488 197.447 14.6888 198.715 15.1687C200.014 15.6487 201.12 16.3086 202.035 17.1485C202.979 17.9884 203.702 18.9933 204.203 20.1631C204.734 21.333 205 22.6078 205 23.9876C205 25.0075 204.72 25.7874 204.159 26.3273C203.598 26.8673 202.817 27.2122 201.813 27.3622L190.881 29.027C191.206 30.0169 191.87 30.7668 192.873 31.2767C193.876 31.7567 195.027 31.9966 196.325 31.9966C197.535 31.9966 198.671 31.8466 199.733 31.5467C200.825 31.2167 201.71 30.8418 202.389 30.4218C202.861 30.7218 203.259 31.1417 203.584 31.6817C203.908 32.2216 204.071 32.7915 204.071 33.3915C204.071 34.7413 203.451 35.7462 202.212 36.4061C201.267 36.916 200.205 37.261 199.025 37.4409C197.845 37.6209 196.738 37.7109 195.706 37.7109ZM194.466 20.0281C193.758 20.0281 193.139 20.1481 192.608 20.3881C192.106 20.628 191.693 20.943 191.368 21.333C191.044 21.6929 190.793 22.1129 190.616 22.5928C190.468 23.0427 190.38 23.5077 190.35 23.9876L197.919 22.7278C197.83 22.1279 197.506 21.5279 196.945 20.928C196.384 20.3281 195.558 20.0281 194.466 20.0281Z" fill="#3077C6"/>
<path d="M232.317 20.3174V13.6826H225.683L221 9L216.317 13.6826H209.683V20.3174L205 25L209.683 29.6826V36.3174H216.317L221 41L225.683 36.3174H232.317V29.6826L237 25L232.317 20.3174ZM221 33.4881C219.741 33.4881 218.538 33.2051 217.463 32.71C220.378 31.366 222.415 28.4235 222.415 25C222.415 21.5765 220.378 18.634 217.463 17.29C218.538 16.7949 219.741 16.5119 221 16.5119C225.683 16.5119 229.488 20.3174 229.488 25C229.488 29.6826 225.683 33.4881 221 33.4881Z" fill="white"/>
<path d="M257 5C245.96 5 237 13.96 237 25C237 36.04 245.96 45 257 45C268.04 45 277 36.04 277 25C277 13.96 268.04 5 257 5ZM257 11C260.32 11 263 13.68 263 17C263 20.32 260.32 23 257 23C253.68 23 251 20.32 251 17C251 13.68 253.68 11 257 11ZM257 39.4C252 39.4 247.58 36.84 245 32.96C245.06 28.98 253 26.8 257 26.8C260.98 26.8 268.94 28.98 269 32.96C266.42 36.84 262 39.4 257 39.4Z" fill="#F5BD41"/>
<path d="M407 46.6665H282C279.25 46.6665 277 44.0415 277 40.8332V5.83331C277 2.62499 279.25 0 282 0H407C409.75 0 412 2.62499 412 5.83331V40.8332C412 44.0415 409.75 46.6665 407 46.6665Z" fill="black"/>
<path d="M407 0.93333C409.32 0.93333 411.2 3.12666 411.2 5.83331V40.8332C411.2 43.5398 409.32 45.7332 407 45.7332H282C279.68 45.7332 277.8 43.5398 277.8 40.8332V5.83331C277.8 3.12666 279.68 0.93333 282 0.93333H407ZM407 0H282C279.25 0 277 2.62499 277 5.83331V40.8332C277 44.0415 279.25 46.6665 282 46.6665H407C409.75 46.6665 412 44.0415 412 40.8332V5.83331C412 2.62499 409.75 0 407 0Z" fill="#A6A6A6"/>
<path d="M324.42 11.9466C324.42 12.9266 324.17 13.7083 323.67 14.28C323.11 14.9683 322.37 15.3183 321.47 15.3183C320.6 15.3183 319.87 14.9683 319.26 14.2683C318.65 13.5683 318.35 12.6933 318.35 11.6666C318.35 10.6283 318.65 9.76491 319.26 9.0649C319.87 8.3649 320.6 8.01489 321.47 8.01489C321.9 8.01489 322.31 8.10823 322.7 8.30656C323.09 8.5049 323.4 8.76157 323.64 9.08824L323.11 9.70658C322.71 9.15824 322.17 8.87823 321.47 8.87823C320.84 8.87823 320.29 9.1349 319.83 9.65991C319.37 10.1732 319.14 10.8499 319.14 11.6783C319.14 12.5066 319.37 13.1833 319.83 13.6966C320.29 14.21 320.84 14.4783 321.47 14.4783C322.14 14.4783 322.7 14.2216 323.15 13.6966C323.44 13.3583 323.61 12.8799 323.65 12.2733H321.47V11.4333H324.38C324.4 11.6083 324.42 11.7833 324.42 11.9466Z" fill="white" stroke="white" stroke-width="0.2" stroke-miterlimit="10"/>
<path d="M329.029 9.02984H326.299V11.2465H328.759V12.0865H326.299V14.3032H329.029V15.1665H325.529V8.1665H329.029V9.02984V9.02984Z" fill="white" stroke="white" stroke-width="0.2" stroke-miterlimit="10"/>
<path d="M332.28 15.1665H331.51V9.02984H329.83V8.1665H333.95V9.02984H332.27V15.1665H332.28Z" fill="white" stroke="white" stroke-width="0.2" stroke-miterlimit="10"/>
<path d="M336.939 15.1665V8.1665H337.709V15.1665H336.939Z" fill="white" stroke="white" stroke-width="0.2" stroke-miterlimit="10"/>
<path d="M341.13 15.1665H340.36V9.02984H338.68V8.1665H342.8V9.02984H341.12V15.1665H341.13Z" fill="white" stroke="white" stroke-width="0.2" stroke-miterlimit="10"/>
<path d="M350.61 14.2566C350.02 14.9683 349.29 15.3183 348.41 15.3183C347.53 15.3183 346.8 14.9683 346.21 14.2566C345.62 13.5449 345.33 12.6816 345.33 11.6666C345.33 10.6516 345.62 9.77658 346.21 9.07657C346.8 8.3649 347.53 8.01489 348.41 8.01489C349.28 8.01489 350.01 8.3649 350.61 9.07657C351.2 9.78824 351.5 10.6516 351.5 11.6666C351.49 12.6933 351.2 13.5566 350.61 14.2566ZM346.78 13.6733C347.22 14.1983 347.77 14.455 348.41 14.455C349.05 14.455 349.6 14.1983 350.04 13.6733C350.48 13.1483 350.71 12.4833 350.71 11.6666C350.71 10.8499 350.49 10.1849 350.04 9.65991C349.6 9.1349 349.05 8.87823 348.41 8.87823C347.77 8.87823 347.22 9.1349 346.78 9.65991C346.34 10.1849 346.11 10.8499 346.11 11.6666C346.11 12.4833 346.34 13.1483 346.78 13.6733Z" fill="white" stroke="white" stroke-width="0.2" stroke-miterlimit="10"/>
<path d="M352.58 15.1665V8.1665H353.52L356.44 13.6148H356.47L356.44 12.2615V8.1665H357.21V15.1665H356.41L353.36 9.4615H353.33L353.36 10.8148V15.1665H352.58Z" fill="white" stroke="white" stroke-width="0.2" stroke-miterlimit="10"/>
<path d="M345.14 25.375C342.79 25.375 340.87 27.4633 340.87 30.3333C340.87 33.1917 342.79 35.2917 345.14 35.2917C347.49 35.2917 349.41 33.1917 349.41 30.3333C349.41 27.4633 347.49 25.375 345.14 25.375ZM345.14 33.3433C343.85 33.3433 342.74 32.1066 342.74 30.3333C342.74 28.5483 343.85 27.3233 345.14 27.3233C346.43 27.3233 347.54 28.5483 347.54 30.3333C347.54 32.1066 346.42 33.3433 345.14 33.3433ZM335.82 25.375C333.47 25.375 331.55 27.4633 331.55 30.3333C331.55 33.1917 333.47 35.2917 335.82 35.2917C338.17 35.2917 340.09 33.1917 340.09 30.3333C340.09 27.4633 338.17 25.375 335.82 25.375ZM335.82 33.3433C334.53 33.3433 333.42 32.1066 333.42 30.3333C333.42 28.5483 334.53 27.3233 335.82 27.3233C337.11 27.3233 338.22 28.5483 338.22 30.3333C338.22 32.1066 337.11 33.3433 335.82 33.3433ZM324.74 26.9033V29.0033H329.06C328.93 30.1816 328.59 31.0566 328.08 31.6516C327.45 32.3866 326.47 33.1917 324.75 33.1917C322.09 33.1917 320.01 30.695 320.01 27.5916C320.01 24.4883 322.09 21.9916 324.75 21.9916C326.18 21.9916 327.23 22.6449 328 23.4966L329.27 22.0149C328.19 20.8133 326.76 19.8916 324.74 19.8916C321.1 19.8916 318.04 23.3449 318.04 27.6033C318.04 31.85 321.1 35.315 324.74 35.315C326.71 35.315 328.19 34.5683 329.35 33.1566C330.54 31.7683 330.91 29.8083 330.91 28.2333C330.91 27.7433 330.88 27.2883 330.81 26.915H324.74V26.9033ZM370.05 28.5366C369.7 27.4283 368.62 25.375 366.41 25.375C364.22 25.375 362.4 27.3816 362.4 30.3333C362.4 33.11 364.2 35.2917 366.62 35.2917C368.57 35.2917 369.7 33.9033 370.16 33.0983L368.71 31.9666C368.23 32.795 367.57 33.3433 366.62 33.3433C365.67 33.3433 364.99 32.83 364.56 31.8383L370.25 29.0966L370.05 28.5366ZM364.25 30.1933C364.2 28.28 365.52 27.3 366.47 27.3C367.21 27.3 367.84 27.7316 368.05 28.35L364.25 30.1933ZM359.63 35H361.5V20.4166H359.63V35ZM356.57 26.4833H356.5C356.08 25.9 355.28 25.375 354.26 25.375C352.13 25.375 350.18 27.5566 350.18 30.3566C350.18 33.1333 352.13 35.3033 354.26 35.3033C355.27 35.3033 356.08 34.7783 356.5 34.1717H356.56V34.8833C356.56 36.785 355.69 37.8 354.29 37.8C353.15 37.8 352.44 36.8433 352.15 36.0383L350.52 36.8317C350.99 38.15 352.23 39.76 354.29 39.76C356.48 39.76 358.33 38.255 358.33 34.5917V25.6783H356.56V26.4833H356.57ZM354.42 33.3433C353.13 33.3433 352.05 32.0833 352.05 30.3566C352.05 28.6066 353.13 27.335 354.42 27.335C355.69 27.335 356.69 28.6183 356.69 30.3566C356.7 32.0833 355.7 33.3433 354.42 33.3433ZM378.81 20.4166H374.34V35H376.21V29.47H378.82C380.89 29.47 382.92 27.72 382.92 24.9433C382.92 22.1666 380.87 20.4166 378.81 20.4166ZM378.85 27.44H376.2V22.4349H378.85C380.25 22.4349 381.04 23.7883 381.04 24.9316C381.04 26.075 380.25 27.44 378.85 27.44ZM390.39 25.3516C389.04 25.3516 387.64 26.0516 387.06 27.58L388.72 28.385C389.07 27.58 389.73 27.3116 390.42 27.3116C391.38 27.3116 392.37 27.9883 392.38 29.19V29.3416C392.04 29.12 391.32 28.7816 390.43 28.7816C388.64 28.7816 386.83 29.925 386.83 32.06C386.83 34.0083 388.29 35.2683 389.93 35.2683C391.18 35.2683 391.88 34.615 392.31 33.845H392.37V34.9767H394.17V29.3883C394.18 26.7983 392.52 25.3516 390.39 25.3516ZM390.16 33.3433C389.55 33.3433 388.7 32.9817 388.7 32.1066C388.7 30.9866 389.76 30.555 390.68 30.555C391.5 30.555 391.89 30.765 392.38 31.045C392.24 32.3866 391.24 33.3433 390.16 33.3433ZM400.74 25.6666L398.6 31.99H398.54L396.32 25.6666H394.31L397.64 34.51L395.74 39.4217H397.69L402.82 25.6666H400.74ZM383.94 35H385.81V20.4166H383.94V35Z" fill="white"/>
<path d="M287.439 8.79651C287.149 9.15818 286.979 9.71817 286.979 10.4298V36.2364C286.979 36.9597 287.149 37.5197 287.439 37.8697L287.509 37.9514L299.9 23.5081V23.3331V23.1581L287.509 8.71484L287.439 8.79651Z" fill="url(#paint0_linear_39214_64)"/>
<path d="M304.029 28.3264L299.899 23.5081V23.3331V23.1581L304.029 18.3398L304.119 18.3982L309.009 21.6415C310.409 22.5631 310.409 24.0798 309.009 25.0131L304.119 28.2564L304.029 28.3264Z" fill="url(#paint1_linear_39214_64)"/>
<path d="M304.119 28.2566L299.899 23.3333L287.439 37.8699C287.899 38.4415 288.659 38.5115 289.519 37.9399L304.119 28.2566Z" fill="url(#paint2_linear_39214_64)"/>
<path d="M304.12 18.4099L289.51 8.72665C288.65 8.15499 287.89 8.22499 287.43 8.79665L299.9 23.3333L304.12 18.4099Z" fill="url(#paint3_linear_39214_64)"/>
<path opacity="0.2" d="M304.029 28.1516L289.509 37.7765C288.699 38.3132 287.969 38.2782 287.509 37.7882L287.439 37.8699L287.509 37.9515C287.979 38.4415 288.699 38.4765 289.509 37.9399L304.119 28.2566L304.029 28.1516Z" fill="black"/>
<path opacity="0.12" d="M287.44 37.7068C287.15 37.3451 286.979 36.7851 286.979 36.0735V36.2485C286.979 36.9718 287.15 37.5318 287.44 37.8818L287.51 37.8001L287.44 37.7068Z" fill="black"/>
<path opacity="0.12" d="M309.01 24.85L304.02 28.1517L304.11 28.2567L309 25.0133C309.7 24.5466 310.049 23.9399 310.049 23.3333C309.999 23.8816 309.65 24.4299 309.01 24.85Z" fill="black"/>
<path opacity="0.25" d="M289.51 8.88911L309.01 21.8158C309.64 22.2358 310 22.7725 310.06 23.3325C310.06 22.7258 309.71 22.1075 309.01 21.6525L289.51 8.72578C288.11 7.80411 286.97 8.57411 286.97 10.4408V10.6158C286.97 8.73745 288.12 7.96745 289.51 8.88911Z" fill="white"/>
<path d="M522.135 0.000151666H421.535C421.168 0.000151666 420.806 0.000151666 420.44 0.00248499C420.134 0.00481831 419.83 0.0115966 419.521 0.0173016C418.85 0.0265203 418.18 0.0954401 417.517 0.223462C416.856 0.354271 416.215 0.600883 415.616 0.954958C415.018 1.31203 414.472 1.776 413.998 2.33005C413.52 2.88255 413.122 3.52115 412.819 4.22132C412.515 4.92009 412.305 5.66888 412.194 6.44184C412.083 7.21383 412.023 7.99472 412.015 8.7775C412.006 9.1352 412.005 9.49408 412 9.85183V36.8183C412.005 37.1806 412.006 37.5315 412.015 37.8939C412.023 38.6766 412.083 39.4575 412.194 40.2294C412.304 41.0028 412.515 41.752 412.819 42.4511C413.122 43.149 413.52 43.785 413.998 44.3344C414.471 44.8909 415.017 45.3552 415.616 45.7096C416.215 46.0646 416.855 46.3127 417.517 46.4455C418.18 46.5725 418.85 46.6414 419.521 46.6517C419.83 46.6597 420.134 46.6642 420.44 46.6642C420.806 46.6666 421.168 46.6666 421.535 46.6666H522.135C522.494 46.6666 522.859 46.6666 523.219 46.6642C523.523 46.6642 523.836 46.6597 524.141 46.6517C524.811 46.642 525.479 46.573 526.141 46.4455C526.804 46.3117 527.448 46.0637 528.049 45.7096C528.647 45.355 529.193 44.8907 529.666 44.3344C530.142 43.7828 530.541 43.1473 530.848 42.4511C531.15 41.7515 531.358 41.0024 531.467 40.2294C531.578 39.4573 531.64 38.6767 531.652 37.8939C531.656 37.5315 531.656 37.1806 531.656 36.8183C531.664 36.3945 531.664 35.973 531.664 35.5422V11.1256C531.664 10.6983 531.664 10.2745 531.656 9.85183C531.656 9.49408 531.656 9.1352 531.652 8.77745C531.64 7.9946 531.578 7.21389 531.467 6.4418C531.358 5.66928 531.149 4.92055 530.848 4.22127C530.23 2.81786 529.252 1.67551 528.049 0.954853C527.448 0.601644 526.804 0.355097 526.141 0.223357C525.48 0.0947711 524.811 0.0258273 524.141 0.0171382C523.836 0.0114449 523.523 0.00460831 523.219 0.00233332C522.859 0 522.494 0 522.135 0V0.000151666Z" fill="#A6A6A6"/>
<path d="M420.445 45.6458C420.14 45.6458 419.843 45.6412 419.541 45.6333C418.914 45.6238 418.29 45.5602 417.671 45.443C417.095 45.3272 416.537 45.1118 416.015 44.8038C415.498 44.4984 415.026 44.098 414.618 43.6178C414.204 43.1433 413.859 42.5929 413.597 41.9885C413.333 41.3802 413.149 40.7282 413.054 40.0552C412.951 39.332 412.896 38.6007 412.888 37.8677C412.881 37.6216 412.873 36.8024 412.873 36.8024V9.85185C412.873 9.85185 412.882 9.04521 412.888 8.80823C412.895 8.07636 412.951 7.34623 413.053 6.62416C413.149 5.94927 413.332 5.29535 413.597 4.68505C413.857 4.08108 414.2 3.53032 414.612 3.05411C415.023 2.57338 415.496 2.17086 416.014 1.86124C416.535 1.55427 417.092 1.34035 417.668 1.22664C418.288 1.1083 418.915 1.04432 419.543 1.03524L420.445 1.021H523.214L524.127 1.03581C524.75 1.04445 525.371 1.10785 525.985 1.2255C526.566 1.34063 527.13 1.55605 527.656 1.86466C528.694 2.48864 529.539 3.47584 530.071 4.6879C530.332 5.29398 530.512 5.94257 530.607 6.61163C530.71 7.33962 530.768 8.07549 530.78 8.81336C530.783 9.14376 530.783 9.49866 530.783 9.85185C530.791 10.2894 530.791 10.7058 530.791 11.1256V35.5423C530.791 35.9661 530.791 36.3797 530.783 36.7967C530.783 37.1761 530.783 37.5236 530.779 37.8813C530.768 38.606 530.711 39.3288 530.608 40.0437C530.515 40.7216 530.333 41.3787 530.068 41.992C529.805 42.5899 529.462 43.1355 529.053 43.6087C528.644 44.0914 528.172 44.4942 527.653 44.8016C527.128 45.1119 526.566 45.3282 525.985 45.443C525.367 45.5608 524.743 45.6244 524.116 45.6333C523.823 45.6412 523.517 45.6458 523.219 45.6458L522.135 45.6481L420.445 45.6458Z" fill="black"/>
<path d="M436.769 23.6841C436.78 22.7103 437.001 21.7555 437.413 20.9086C437.826 20.0616 438.414 19.35 439.126 18.84C438.674 18.0873 438.078 17.4679 437.385 17.0309C436.692 16.5939 435.922 16.3514 435.134 16.3227C433.455 16.117 431.827 17.495 430.971 17.495C430.099 17.495 428.782 16.3431 427.363 16.3772C426.445 16.4117 425.551 16.7231 424.767 17.2808C423.983 17.8385 423.337 18.6237 422.89 19.5597C420.956 23.4662 422.399 29.2074 424.251 32.3651C425.178 33.9114 426.261 35.6386 427.679 35.5773C429.066 35.5102 429.584 34.5454 431.258 34.5454C432.917 34.5454 433.403 35.5773 434.849 35.5384C436.338 35.5102 437.275 33.9853 438.17 32.4244C438.836 31.3226 439.348 30.1049 439.688 28.8164C438.824 28.3898 438.086 27.6756 437.566 26.7629C437.047 25.8502 436.77 24.7794 436.769 23.6841V23.6841Z" fill="white"/>
<path d="M434.038 14.2462C434.849 13.1096 435.249 11.6488 435.152 10.1738C433.912 10.3258 432.767 11.0171 431.945 12.11C431.542 12.644 431.234 13.2651 431.038 13.938C430.842 14.6109 430.761 15.3223 430.801 16.0316C431.421 16.0391 432.034 15.8822 432.595 15.573C433.156 15.2637 433.649 14.8101 434.038 14.2462Z" fill="white"/>
<path d="M454.303 31.6629H449.569L448.433 35.5788H446.428L450.911 21.0911H452.994L457.478 35.5788H455.438L454.303 31.6629ZM450.06 29.8559H453.812L451.962 23.5008H451.91L450.06 29.8559Z" fill="white"/>
<path d="M467.16 30.2982C467.16 33.5806 465.654 35.6895 463.382 35.6895C462.806 35.7246 462.234 35.5699 461.73 35.2431C461.226 34.9162 460.811 34.4305 460.533 33.8415H460.49V39.0732H458.632V25.0163H460.431V26.7731H460.465C460.756 26.1869 461.178 25.7037 461.685 25.3749C462.193 25.046 462.767 24.8839 463.348 24.9058C465.645 24.9058 467.16 27.0249 467.16 30.2982ZM465.25 30.2982C465.25 28.1597 464.303 26.7537 462.857 26.7537C461.438 26.7537 460.482 28.1893 460.482 30.2982C460.482 32.4264 461.438 33.8517 462.857 33.8517C464.303 33.8517 465.25 32.4561 465.25 30.2982Z" fill="white"/>
<path d="M477.125 30.2982C477.125 33.5806 475.619 35.6895 473.347 35.6895C472.771 35.7246 472.199 35.5699 471.695 35.2431C471.191 34.9162 470.776 34.4305 470.498 33.8415H470.455V39.0732H468.597V25.0163H470.395V26.7731H470.43C470.721 26.1869 471.142 25.7037 471.65 25.3749C472.158 25.046 472.732 24.8839 473.312 24.9058C475.61 24.9058 477.125 27.0249 477.125 30.2982ZM475.215 30.2982C475.215 28.1597 474.268 26.7537 472.822 26.7537C471.402 26.7537 470.447 28.1893 470.447 30.2982C470.447 32.4264 471.402 33.8517 472.822 33.8517C474.268 33.8517 475.215 32.4561 475.215 30.2982H475.215Z" fill="white"/>
<path d="M483.711 31.5422C483.849 32.9788 485.045 33.9221 486.68 33.9221C488.246 33.9221 489.373 32.9788 489.373 31.6834C489.373 30.5589 488.693 29.8856 487.084 29.4241L485.475 28.9718C483.194 28.3292 482.136 27.0851 482.136 25.0662C482.136 22.5666 484.003 20.8496 486.654 20.8496C489.278 20.8496 491.077 22.5666 491.138 25.0662H489.262C489.149 23.6204 488.125 22.7477 486.628 22.7477C485.131 22.7477 484.106 23.6307 484.106 24.9158C484.106 25.9401 484.761 26.5428 486.361 27.0042L487.729 27.3961C490.277 28.099 491.336 29.2931 491.336 31.4122C491.336 34.1226 489.485 35.8202 486.542 35.8202C483.788 35.8202 481.929 34.1625 481.809 31.542L483.711 31.5422Z" fill="white"/>
<path d="M495.347 22.5166V25.0163H497.068V26.7332H495.347V32.5563C495.347 33.4609 495.691 33.8824 496.448 33.8824C496.653 33.8783 496.857 33.8615 497.06 33.8323V35.539C496.719 35.6131 496.373 35.6467 496.027 35.6392C494.194 35.6392 493.479 34.836 493.479 32.7875V26.7332H492.163V25.0163H493.479V22.5166H495.347Z" fill="white"/>
<path d="M498.065 30.298C498.065 26.9746 499.743 24.8862 502.359 24.8862C504.984 24.8862 506.654 26.9746 506.654 30.298C506.654 33.6305 504.993 35.7098 502.359 35.7098C499.727 35.7098 498.065 33.6305 498.065 30.298ZM504.761 30.298C504.761 28.0182 503.865 26.6727 502.359 26.6727C500.854 26.6727 499.959 28.0285 499.959 30.298C499.959 32.5869 500.854 33.9222 502.359 33.9222C503.865 33.9222 504.761 32.5869 504.761 30.298H504.761Z" fill="white"/>
<path d="M508.187 25.0162H509.959V26.814H510.002C510.122 26.2525 510.404 25.7563 510.8 25.4088C511.197 25.0612 511.684 24.8836 512.18 24.9056C512.394 24.9048 512.607 24.9319 512.816 24.9865V27.0145C512.546 26.9182 512.264 26.8739 511.981 26.8835C511.711 26.8707 511.442 26.9263 511.192 27.0463C510.943 27.1664 510.718 27.348 510.534 27.5789C510.35 27.8098 510.211 28.0844 510.127 28.3838C510.042 28.6833 510.014 29.0005 510.045 29.3137V35.5789H508.187L508.187 25.0162Z" fill="white"/>
<path d="M521.385 32.4763C521.135 34.3938 519.534 35.7097 517.486 35.7097C514.853 35.7097 513.218 33.6509 513.218 30.3481C513.218 27.035 514.861 24.8862 517.408 24.8862C519.913 24.8862 521.488 26.8937 521.488 30.0963V30.8391H515.094V30.9701C515.064 31.3589 515.106 31.7505 515.216 32.1189C515.326 32.4874 515.502 32.8243 515.733 33.1073C515.963 33.3903 516.242 33.6128 516.552 33.7602C516.862 33.9075 517.195 33.9763 517.529 33.962C517.968 34.01 518.409 33.8913 518.786 33.6236C519.163 33.3559 519.455 32.9535 519.62 32.4763L521.385 32.4763ZM515.103 29.3238H519.629C519.646 28.9743 519.6 28.6245 519.495 28.2965C519.391 27.9684 519.229 27.6691 519.021 27.4174C518.812 27.1657 518.561 26.9669 518.284 26.8337C518.006 26.7004 517.708 26.6355 517.408 26.643C517.106 26.6409 516.806 26.7088 516.526 26.8426C516.245 26.9765 515.991 27.1737 515.777 27.423C515.562 27.6722 515.392 27.9685 515.277 28.2948C515.161 28.621 515.102 28.9708 515.103 29.3238V29.3238Z" fill="white"/>
<path d="M449.826 10.1864C450.216 10.1537 450.607 10.2224 450.971 10.3874C451.335 10.5524 451.663 10.8096 451.932 11.1405C452.2 11.4714 452.403 11.8677 452.524 12.3009C452.645 12.734 452.683 13.1932 452.634 13.6453C452.634 15.8692 451.604 17.1476 449.826 17.1476H447.671V10.1864H449.826ZM448.598 16.1631H449.723C450.001 16.1825 450.28 16.1293 450.538 16.0072C450.797 15.8852 451.029 15.6974 451.217 15.4576C451.406 15.2178 451.546 14.9319 451.628 14.6209C451.71 14.3098 451.731 13.9814 451.69 13.6595C451.728 13.3389 451.705 13.0125 451.621 12.7037C451.538 12.3949 451.398 12.1114 451.21 11.8735C451.022 11.6356 450.791 11.4491 450.534 11.3275C450.277 11.2059 450 11.1522 449.723 11.1701H448.598V16.1631Z" fill="white"/>
<path d="M453.681 14.5185C453.653 14.1732 453.686 13.8249 453.78 13.4958C453.874 13.1667 454.026 12.8642 454.226 12.6075C454.426 12.3509 454.67 12.1458 454.941 12.0055C455.213 11.8652 455.507 11.7927 455.804 11.7927C456.102 11.7927 456.396 11.8652 456.668 12.0055C456.939 12.1458 457.183 12.3509 457.383 12.6075C457.583 12.8642 457.735 13.1667 457.829 13.4958C457.922 13.8249 457.956 14.1732 457.928 14.5185C457.957 14.864 457.923 15.2128 457.83 15.5425C457.736 15.8721 457.585 16.1752 457.385 16.4323C457.185 16.6895 456.941 16.895 456.669 17.0356C456.396 17.1762 456.102 17.2488 455.804 17.2488C455.507 17.2488 455.213 17.1762 454.94 17.0356C454.668 16.895 454.424 16.6895 454.224 16.4323C454.024 16.1752 453.873 15.8721 453.779 15.5425C453.686 15.2128 453.652 14.864 453.681 14.5185V14.5185ZM457.014 14.5185C457.014 13.3797 456.575 12.7138 455.806 12.7138C455.033 12.7138 454.599 13.3797 454.599 14.5185C454.599 15.6663 455.034 16.3271 455.806 16.3271C456.575 16.3271 457.014 15.6617 457.014 14.5185H457.014Z" fill="white"/>
<path d="M463.573 17.1475H462.651L461.721 13.2783H461.65L460.724 17.1475H459.811L458.569 11.894H459.471L460.277 15.9027H460.344L461.27 11.894H462.122L463.048 15.9027H463.118L463.921 11.894H464.81L463.573 17.1475Z" fill="white"/>
<path d="M465.854 11.8942H466.709V12.7287H466.775C466.888 12.429 467.078 12.1777 467.319 12.01C467.56 11.8422 467.84 11.7663 468.119 11.7928C468.338 11.7736 468.558 11.8121 468.763 11.9055C468.967 11.999 469.151 12.1449 469.301 12.3326C469.451 12.5203 469.562 12.7448 469.628 12.9896C469.693 13.2344 469.71 13.4932 469.678 13.7467V17.1476H468.789V14.0071C468.789 13.1628 468.475 12.743 467.817 12.743C467.669 12.7349 467.52 12.7644 467.382 12.8296C467.244 12.8947 467.12 12.9939 467.018 13.1204C466.915 13.2468 466.838 13.3975 466.79 13.5622C466.743 13.7268 466.726 13.9015 466.742 14.0743V17.1477H465.854L465.854 11.8942Z" fill="white"/>
<path d="M471.094 9.84326H471.982V17.1475H471.094V9.84326Z" fill="white"/>
<path d="M473.218 14.5184C473.19 14.1731 473.224 13.8248 473.317 13.4957C473.411 13.1666 473.563 12.864 473.763 12.6073C473.963 12.3507 474.207 12.1456 474.479 12.0053C474.751 11.865 475.045 11.7925 475.342 11.7925C475.639 11.7925 475.933 11.865 476.205 12.0053C476.477 12.1456 476.721 12.3507 476.921 12.6073C477.12 12.864 477.272 13.1666 477.366 13.4957C477.46 13.8248 477.494 14.1731 477.466 14.5184C477.494 14.864 477.461 15.2128 477.367 15.5424C477.274 15.8721 477.122 16.1752 476.922 16.4323C476.722 16.6895 476.478 16.895 476.206 17.0356C475.934 17.1762 475.639 17.2488 475.342 17.2488C475.044 17.2488 474.75 17.1762 474.478 17.0356C474.206 16.895 473.962 16.6895 473.762 16.4323C473.562 16.1752 473.41 15.8721 473.316 15.5424C473.223 15.2128 473.189 14.864 473.218 14.5184V14.5184ZM476.551 14.5184C476.551 13.3796 476.113 12.7137 475.343 12.7137C474.571 12.7137 474.136 13.3796 474.136 14.5184C474.136 15.6663 474.571 16.3271 475.343 16.3271C476.113 16.3271 476.551 15.6617 476.551 14.5184H476.551Z" fill="white"/>
<path d="M478.4 15.6617C478.4 14.716 479.004 14.1709 480.075 14.0934L481.295 14.0114V13.5579C481.295 13.003 480.98 12.6897 480.373 12.6897C479.877 12.6897 479.533 12.9022 479.435 13.2736H478.574C478.665 12.3713 479.393 11.7925 480.414 11.7925C481.543 11.7925 482.18 12.4482 482.18 13.5579V17.1474H481.324V16.4091H481.254C481.111 16.674 480.911 16.8898 480.673 17.0348C480.436 17.1797 480.169 17.2484 479.901 17.234C479.712 17.2569 479.521 17.2334 479.341 17.1649C479.16 17.0964 478.993 16.9845 478.852 16.8364C478.71 16.6882 478.597 16.5072 478.519 16.3048C478.442 16.1025 478.401 15.8834 478.4 15.6617V15.6617ZM481.295 15.2128V14.7736L480.195 14.8556C479.575 14.904 479.294 15.1501 479.294 15.6133C479.294 16.0861 479.645 16.3613 480.129 16.3613C480.271 16.378 480.414 16.3613 480.55 16.3122C480.686 16.2631 480.812 16.1826 480.921 16.0754C481.029 15.9683 481.119 15.8367 481.183 15.6885C481.247 15.5403 481.285 15.3785 481.295 15.2128V15.2128Z" fill="white"/>
<path d="M483.348 14.5185C483.348 12.8585 484.079 11.8069 485.217 11.8069C485.498 11.7918 485.778 11.8704 486.022 12.0336C486.267 12.1968 486.466 12.4379 486.598 12.7286H486.664V9.84326H487.553V17.1475H486.701V16.3175H486.631C486.489 16.6062 486.283 16.8443 486.033 17.0058C485.784 17.1674 485.502 17.2463 485.217 17.2341C484.071 17.2341 483.348 16.1825 483.348 14.5185ZM484.266 14.5185C484.266 15.6328 484.716 16.3033 485.469 16.3033C486.218 16.3033 486.681 15.6231 486.681 14.5231C486.681 13.4282 486.213 12.7383 485.469 12.7383C484.721 12.7383 484.266 13.4134 484.266 14.5185H484.266Z" fill="white"/>
<path d="M491.23 14.5185C491.201 14.1732 491.235 13.8249 491.329 13.4958C491.423 13.1667 491.575 12.8642 491.775 12.6075C491.975 12.3509 492.218 12.1458 492.49 12.0055C492.762 11.8652 493.056 11.7927 493.353 11.7927C493.651 11.7927 493.945 11.8652 494.216 12.0055C494.488 12.1458 494.732 12.3509 494.932 12.6075C495.132 12.8642 495.284 13.1667 495.377 13.4958C495.471 13.8249 495.505 14.1732 495.477 14.5185C495.506 14.864 495.472 15.2128 495.379 15.5425C495.285 15.8721 495.133 16.1752 494.933 16.4323C494.733 16.6895 494.489 16.895 494.217 17.0356C493.945 17.1762 493.651 17.2488 493.353 17.2488C493.056 17.2488 492.761 17.1762 492.489 17.0356C492.217 16.895 491.973 16.6895 491.773 16.4323C491.573 16.1752 491.422 15.8721 491.328 15.5425C491.234 15.2128 491.201 14.864 491.23 14.5185V14.5185ZM494.563 14.5185C494.563 13.3797 494.124 12.7138 493.355 12.7138C492.582 12.7138 492.148 13.3797 492.148 14.5185C492.148 15.6663 492.582 16.3271 493.355 16.3271C494.124 16.3271 494.563 15.6617 494.563 14.5185Z" fill="white"/>
<path d="M496.67 11.8942H497.525V12.7287H497.592C497.704 12.429 497.894 12.1777 498.135 12.01C498.376 11.8422 498.656 11.7663 498.936 11.7928C499.155 11.7736 499.375 11.8121 499.579 11.9055C499.784 11.999 499.968 12.1449 500.118 12.3326C500.267 12.5203 500.379 12.7448 500.444 12.9896C500.509 13.2344 500.526 13.4932 500.494 13.7467V17.1476H499.606V14.0071C499.606 13.1628 499.291 12.743 498.634 12.743C498.485 12.7349 498.337 12.7644 498.198 12.8296C498.06 12.8947 497.936 12.9939 497.834 13.1204C497.732 13.2468 497.654 13.3975 497.607 13.5622C497.559 13.7268 497.543 13.9015 497.559 14.0743V17.1477H496.67V11.8942Z" fill="white"/>
<path d="M505.515 10.5862V11.918H506.49V12.7913H505.515V15.4927C505.515 16.043 505.709 16.2839 506.151 16.2839C506.265 16.2835 506.378 16.2755 506.49 16.26V17.1236C506.331 17.1569 506.169 17.1746 506.007 17.1766C505.019 17.1766 504.625 16.771 504.625 15.7581V12.7913H503.91V11.918H504.625V10.5862H505.515Z" fill="white"/>
<path d="M507.705 9.84326H508.586V12.7383H508.656C508.774 12.4357 508.97 12.1831 509.215 12.0146C509.461 11.8462 509.745 11.7703 510.029 11.7972C510.247 11.7834 510.465 11.8258 510.667 11.9215C510.87 12.0173 511.051 12.1639 511.199 12.3509C511.348 12.538 511.459 12.7609 511.524 13.0037C511.59 13.2465 511.609 13.5033 511.58 13.7557V17.1475H510.69V14.0115C510.69 13.1724 510.355 12.7474 509.728 12.7474C509.575 12.7328 509.421 12.7573 509.277 12.8192C509.134 12.8811 509.003 12.9789 508.895 13.1057C508.787 13.2326 508.704 13.3854 508.652 13.5536C508.6 13.7218 508.58 13.9012 508.594 14.0792V17.1474H507.705L507.705 9.84326Z" fill="white"/>
<path d="M516.761 15.729C516.641 16.2091 516.379 16.6244 516.022 16.9023C515.666 17.1801 515.237 17.3028 514.81 17.2489C514.514 17.258 514.219 17.1917 513.946 17.0546C513.674 16.9175 513.43 16.7128 513.232 16.4548C513.034 16.1968 512.887 15.8917 512.8 15.5605C512.713 15.2294 512.69 14.8802 512.73 14.5372C512.691 14.1932 512.715 13.8433 512.801 13.5112C512.888 13.179 513.035 12.8725 513.231 12.6122C513.428 12.352 513.671 12.1441 513.942 12.0027C514.214 11.8613 514.509 11.7896 514.806 11.7926C516.059 11.7926 516.815 12.7912 516.815 14.4409V14.8027H513.635V14.8608C513.621 15.0536 513.642 15.2477 513.696 15.4305C513.751 15.6134 513.837 15.7811 513.95 15.9228C514.063 16.0645 514.2 16.1771 514.352 16.2534C514.504 16.3297 514.669 16.368 514.835 16.3658C515.047 16.3956 515.263 16.351 515.453 16.2375C515.644 16.1241 515.802 15.9471 515.906 15.7289L516.761 15.729ZM513.635 14.0359H515.91C515.921 13.8596 515.9 13.6825 515.849 13.516C515.799 13.3495 515.718 13.1973 515.614 13.0691C515.51 12.9409 515.383 12.8397 515.243 12.7718C515.103 12.7039 514.953 12.6709 514.801 12.675C514.648 12.6727 514.495 12.7064 514.353 12.774C514.21 12.8416 514.081 12.9418 513.972 13.0686C513.864 13.1954 513.778 13.3464 513.72 13.5125C513.662 13.6786 513.633 13.8566 513.635 14.0359H513.635Z" fill="white"/>
<defs>
<linearGradient id="paint0_linear_39214_64" x1="298.799" y1="10.1612" x2="279.45" y2="26.7462" gradientUnits="userSpaceOnUse">
<stop stop-color="#00A0FF"/>
<stop offset="0.00657445" stop-color="#00A1FF"/>
<stop offset="0.2601" stop-color="#00BEFF"/>
<stop offset="0.5122" stop-color="#00D2FF"/>
<stop offset="0.7604" stop-color="#00DFFF"/>
<stop offset="1" stop-color="#00E3FF"/>
</linearGradient>
<linearGradient id="paint1_linear_39214_64" x1="310.834" y1="23.3348" x2="286.637" y2="23.3348" gradientUnits="userSpaceOnUse">
<stop stop-color="#FFE000"/>
<stop offset="0.4087" stop-color="#FFBD00"/>
<stop offset="0.7754" stop-color="#FFA500"/>
<stop offset="1" stop-color="#FF9C00"/>
</linearGradient>
<linearGradient id="paint2_linear_39214_64" x1="301.826" y1="26.012" x2="275.588" y2="48.5026" gradientUnits="userSpaceOnUse">
<stop stop-color="#FF3A44"/>
<stop offset="1" stop-color="#C31162"/>
</linearGradient>
<linearGradient id="paint3_linear_39214_64" x1="284.297" y1="0.205588" x2="296.014" y2="10.2485" gradientUnits="userSpaceOnUse">
<stop stop-color="#32A071"/>
<stop offset="0.0685" stop-color="#2DA771"/>
<stop offset="0.4762" stop-color="#15CF74"/>
<stop offset="0.8009" stop-color="#06E775"/>
<stop offset="1" stop-color="#00F076"/>
</linearGradient>
</defs>
</svg>
